<?xml version="1.0" encoding="UTF-8" standalone="no"?>
<svg
   viewBox="0 -256 1802.0398 1788.9978"
   id="svg3025"
   version="1.1"
   inkscape:version="1.3.2 (091e20e, 2023-11-25)"
   width="1802.0398"
   height="1788.9978"
   sodipodi:docname="earth.svg"
   xml:space="preserve"
   xmlns:inkscape="http://www.inkscape.org/namespaces/inkscape"
   xmlns:sodipodi="http://sodipodi.sourceforge.net/DTD/sodipodi-0.dtd"
   xmlns="http://www.w3.org/2000/svg"
   xmlns:svg="http://www.w3.org/2000/svg"
   xmlns:rdf="http://www.w3.org/1999/02/22-rdf-syntax-ns#"
   xmlns:cc="http://creativecommons.org/ns#"
   xmlns:dc="http://purl.org/dc/elements/1.1/"><metadata
     id="metadata3035"><rdf:RDF><cc:Work
         rdf:about=""><dc:format>image/svg+xml</dc:format><dc:type
           rdf:resource="http://purl.org/dc/dcmitype/StillImage" /></cc:Work></rdf:RDF></metadata><defs
     id="defs3033"><filter
       style="color-interpolation-filters:sRGB"
       inkscape:label="Invert"
       id="filter5"
       x="0"
       y="0"
       width="1"
       height="1"><feColorMatrix
         values="-1 0 0 0 1 0 -1 0 0 1 0 0 -1 0 1 -0.21 -0.72 -0.07 1 0 "
         result="color2"
         id="feColorMatrix5" /></filter></defs><sodipodi:namedview
     pagecolor="#000000"
     bordercolor="#666666"
     borderopacity="1"
     objecttolerance="10"
     gridtolerance="10"
     guidetolerance="10"
     inkscape:pageopacity="0"
     inkscape:pageshadow="2"
     inkscape:window-width="1144"
     inkscape:window-height="700"
     id="namedview3031"
     showgrid="false"
     inkscape:zoom="0.14970856"
     inkscape:cx="955.1892"
     inkscape:cy="938.49009"
     inkscape:window-x="0"
     inkscape:window-y="25"
     inkscape:window-maximized="0"
     inkscape:current-layer="svg3025"
     inkscape:pagecheckerboard="0"
     inkscape:showpageshadow="2"
     inkscape:deskcolor="#000000"
     inkscape:export-bgcolor="#00000000" /><g
     transform="matrix(1,0,0,-1,-5.4838257,1520.2928)"
     id="g3027" /><g
     id="g7"
     transform="translate(-5.4838257,-15.707153)"><ellipse
       style="mix-blend-mode:darken;fill:#000000;fill-rule:evenodd;stroke:none;stroke-width:1.2506;stroke-dasharray:7.50362, 7.50362"
       id="path5"
       cx="906.50372"
       cy="654.20605"
       rx="901.0199"
       ry="894.4989" /><path
       style="fill:#000000;filter:url(#filter5)"
       d="m 813.34199,1274.8132 c -173.1093,-22.4077 -330.8789,-104.6787 -442.1597,-230.57 -206.6263,-233.75502 -215.9162,-568.92052 -22.5463,-813.43492 43.4737,-54.97204 122.9158,-124.15687 185.9196,-161.914198 31.1957,-18.69516 96.1263,-48.57556 132.7166,-61.0748203 121.1966,-41.4008597 259.6116,-50.0924497 386.26311,-24.2548897 185.774,37.89884 350.3278,150.722778 449.9019,308.468668 93.6023,148.28544 119.8067,327.72274 73.0615,500.29544 -61.3172,226.36842 -261.6022,412.41882 -504.6295,468.76452 -78.02401,18.0898 -182.09951,23.6132 -258.52721,13.7202 z m 152.7933,-28.5358 c 86.45081,-8.2528 159.66041,-28.4958 236.67761,-65.4432 68.7657,-32.989 109.2139,-60.831 166.8756,-114.8669 58.2434,-54.581 92.5403,-99.09202 127.1475,-165.01402 28.0879,-53.5035 45.8096,-101.8238 56.4782,-153.994 7.2826,-35.6124 15.2594,-105.6975 12.3432,-108.4495 -0.8409,-0.7935 -15.4723,7.6575 -32.5143,18.7801 -32.5708,21.2575 -53.3494,31.0262 -65.9946,31.0262 -6.2057,0 -8.3687,-3.121 -11.9083,-17.1829 -5.9162,-23.5034 -32.4063,-62.4114 -62.5881,-91.9278 -23.403,-22.8871 -33.9239,-29.4364 -33.9239,-21.1176 0,9.6862 39.9386,73.6017 73.7352,118.0015 27.3296,35.904 39.7101,41.1809 71.6594,30.5433 20.5265,-6.8343 23.5824,-2.744 12.8533,17.2042 -13.9168,25.8747 -39.1347,54.7427 -66.9756,76.6697 -34.594,27.2456 -38.5781,37.3463 -30.0864,76.277 11.2954,51.7849 6.7853,66.3842 -26.7647,86.6373 -17.7723,10.7287 -19.5238,12.9894 -25.4148,32.80442 -3.4799,11.7049 -10.1173,25.5328 -14.7497,30.7287 -5.7346,6.432 -8.4226,13.6285 -8.4226,22.5491 0,10.2698 -2.669,15.89 -12.3463,25.9984 -24.0296,25.1001 -83.2233,44.6684 -103.7544,34.2993 -4.0669,-2.054 -10.6831,-12.1572 -14.8596,-22.6914 -4.1407,-10.4439 -12.3327,-24.1523 -18.2044,-30.4632 -13.7603,-14.7896 -17.2843,-23.9628 -17.2843,-44.9922 0,-9.4132 -3.3151,-28.26382 -7.3668,-41.89012 -6.1681,-20.7439 -6.6689,-26.3652 -3.0776,-34.5471 10.1719,-23.1742 1.8001,-64.1393 -19.8825,-97.2897 -11.5509,-17.6602 -12.7288,-21.4595 -10.4749,-33.7881 5.5259,-30.2265 4.7375,-33.8403 -7.6297,-34.9715 -16.0577,-1.4688 -21.2292,-8.4243 -14.0025,-18.8325 3.1304,-4.5087 4.5142,-8.8439 3.075,-9.6338 -1.4392,-0.7899 -24.928,3.6294 -52.1973,9.8207 -51.1295,11.6086 -75.95251,13.7628 -92.04711,7.9883 -11.2739,-4.045 -45.1246,-33.5855 -58.9898,-51.4787 -9.8531,-12.7156 -10.098,-14.063 -10.0221,-55.1436 0.098,-52.9858 3.5613,-60.8612 43.1007,-98.006 16.1906,-15.21 34.9875,-33.5391 41.7709,-40.7313 15.93591,-16.8963 39.21341,-26.6691 83.82661,-35.1936 64.166,-12.2606 82.0367,-8.6776 77.9191,15.6223 -1.6013,9.4503 -0.8523,14.6087 2.5028,17.2364 6.4822,5.0768 39.854,15.7156 58.744,18.7273 l 15.3769,2.4516 -2.0611,-9.7251 c -3.8672,-18.2474 -1.2823,-18.6796 55.59,-9.2946 28.7554,4.7452 56.3697,8.1643 61.3651,7.598 17.3313,-1.9647 31.2689,-31.2849 21.0549,-44.2926 -4.7755,-6.0816 -6.6402,-6.2336 -28.9321,-2.3574 -20.6257,3.5864 -24.9597,3.4432 -32.2516,-1.0656 -9.3026,-5.752 -17.1575,-16.1939 -20.7627,-27.6007 -3.2342,-10.2326 13.2246,-19.32584 44.5379,-24.60671 20.8281,-3.51257 26.1166,-3.31585 39.382,1.46497 20.0333,7.21995 23.7333,6.98233 36.0459,-2.3149 7.1164,-5.3735 9.6117,-9.58358 8.012,-13.51759 -3.5912,-8.83149 -40.6227,-23.50406 -59.6702,-23.64247 -12.6013,-0.0916 -18.7513,-2.08613 -25.8622,-8.38766 -7.916,-7.01494 -9.8738,-7.52128 -12.9227,-3.34204 -7.8102,10.70589 -13.741,26.98669 -13.741,37.72055 0,13.52625 -11.7462,25.96875 -18.4993,19.59596 -12.1883,-11.50191 -27.5398,3.13869 -27.5398,26.26449 0,15.9383 -0.3844,16.6336 -7.2724,13.1548 -8.7499,-4.4191 -18.9763,-19.5927 -26.9642,-40.00873 -6.6927,-17.10574 -19.5434,-31.7237 -34.2658,-38.97823 -18.3246,-9.02954 -16.8539,2.74384 2.9619,23.71064 13.1404,13.90359 14.9837,22.17822 7.6988,34.55962 -4.4293,7.5281 -4.5724,7.4643 -16.2419,-7.2331 -6.4752,-8.15539 -20.1325,-21.63859 -30.3496,-29.96263 l -18.5765,-15.13462 -22.605,3.08381 c -12.4328,1.69609 -23.8003,3.11405 -25.2612,3.15101 -1.4608,0.037 -2.6561,5.28588 -2.6561,11.66428 0,8.88967 -2.3693,13.25018 -10.149,18.67807 -5.582,3.89458 -13.5902,12.85888 -17.796,19.92068 -7.9619,13.3685 -16.571,17.4902 -45.2753,21.6759 -21.81151,3.1805 -29.48221,-1.9421 -29.48221,-19.689 0,-16.3777 5.6088,-34.43736 13.3075,-42.84827 3.7315,-4.07669 11.92641,-5.9842 28.71571,-6.68408 l 23.494,-0.97936 -0.9747,-16.7102 c -0.8371,-14.35154 -2.744,-18.20181 -13.5102,-27.27782 -13.6561,-11.51234 -13.8137,-11.30416 12.3311,-16.28883 8.5413,-1.62846 19.7975,-9.66939 38.9561,-27.82868 31.6511,-29.99996 52.436,-40.67889 65.9204,-33.86867 7.1783,3.62536 14.1233,3.66539 38.644,0.22275 33.8245,-4.74886 38.4886,-7.94681 46.0163,-31.55114 7.1832,-22.52368 14.074,-30.95507 33.1291,-40.53574 l 16.7662,-8.42988 -23.0195,0.42186 c -12.6608,0.23202 -24.9502,0.24887 -27.3099,0.0375 -2.3597,-0.21143 -5.9949,-6.35803 -8.0782,-13.65912 -3.3522,-11.7483 -2.7297,-15.2451 5.4138,-30.41066 5.0609,-9.42477 8.5382,-17.76202 7.7274,-18.52723 -3.178,-2.99902 -28.6075,4.1793 -31.2632,8.82505 -9.7595,17.07314 -13.3536,30.55096 -12.8999,48.37449 0.5223,20.51844 -8.5787,46.20475 -20.937,59.09153 -7.5341,7.8562 -16.3635,3.23307 -26.8162,-14.04102 -8.8144,-14.56658 -10.9475,-15.30464 -23.9541,-8.28809 -11.7942,6.36248 -23.5336,6.23992 -26.1821,-0.27334 -1.1823,-2.90752 -2.1497,-12.74251 -2.1497,-21.85553 0,-15.77483 1.0922,-17.66656 22.7828,-39.46096 14.8387,-14.90969 27.9308,-32.63487 37.5465,-50.83379 8.12,-15.36809 20.9532,-34.954128 28.5183,-43.524528 l 13.7546,-15.58254 -27.3962,-10.77453 c -48.2638,-18.98155 -106.3496,-35.2531 -148.324,-41.5499503 l -14.6839,-2.20283 -6.17221,17.7808903 c -12.3661,35.62401 -19.5922,46.6103 -35.0011,53.21454 -7.9498,3.40726 -19.7127,6.22805 -26.1398,6.26842 -13.5134,0.0849 -27.9332,6.39584 -37.5668,16.44143 -3.706,3.864428 -9.3239,7.026238 -12.4842,7.026238 -12.0192,0 -21.8372,11.44306 -43.0546,50.18084 -12.0507,22.00155 -23.8785,41.54424 -26.284,43.4282 -11.5829,9.07167 -25.9605,-9.8315 -45.8871,-60.33114 -6.8595,-17.38379 -12.4796,-35.24868 -12.489,-39.69976 -0.01,-4.451088 4.1755,-17.982998 9.3,-30.070928 5.2323,-12.3422 9.5022,-29.30757 9.7391,-38.69566 l 0.4217,-16.71761 -14.2651,0.55911 c -7.8458,0.3075 -33.3444,6.43448 -56.6635,13.61551 -48.5456,14.94941 -49.6527,16.61656 -26.1825,39.4245 7.6376,7.42206 13.8787,14.94164 13.869,16.71019 -0.01,1.76854 -3.8492,7.72729 -8.5323,13.24165 l -8.5146,10.026108 -11.2242,-7.81387 c -6.1734,-4.297628 -12.1129,-6.975248 -13.1991,-5.950268 -1.0861,1.02498 1.4297,9.331778 5.5906,18.459538 4.161,9.12777 7.5654,18.08165 7.5654,19.89751 0,6.12224 -18.2836,23.86665 -24.5919,23.86665 -3.6279,0 -12.5152,-8.42198 -21.1602,-20.05223 -14.8139,-19.92946 -15.0129,-20.05223 -32.4975,-20.05223 -12.5892,0 -18.1887,-1.46668 -19.6894,-5.15719 -2.6736,-6.57495 -1.1436,-7.88801 15.3364,-13.162118 7.4492,-2.38398 15.2792,-7.49859 17.3999,-11.3658 2.1207,-3.8672 6.7591,-10.05869 10.3076,-13.75886 12.4336,-12.96532 1.9007,-10.59989 -30.3481,6.81547 -44.0575,23.792418 -96.8129,61.350918 -135.1066,96.187278 l -31.7236,28.8595 10.7317,2.62426 c 5.9024,1.44334 13.8536,6.73984 17.6693,11.77 3.8156,5.03016 14.2526,12.15357 23.1933,15.82982 16.6368,6.8408 19.4045,10.79417 12.27,17.52686 -7.2692,6.85993 9.5236,37.61677 20.5383,37.61677 3.3605,0 4.7633,-4.9642 4.7633,-16.85611 0,-16.07437 0.9241,-17.70754 19.9268,-35.2153 19.2313,-17.71851 19.8571,-18.84878 17.9327,-32.38864 -1.5032,-10.57593 -0.2557,-16.68376 5.0678,-24.81223 5.9677,-9.11229 6.4924,-12.72879 3.3865,-23.34396 -5.0246,-17.17271 -0.7491,-20.13087 18.8739,-13.05877 20.3948,7.3502 37.5149,25.33903 37.5149,39.41843 0,10.88261 8.4303,22.70562 16.1901,22.70562 2.4574,0 7.5472,-3.9891 11.3107,-8.86466 3.7636,-4.87557 8.4933,-7.90207 10.5105,-6.72556 2.0172,1.17651 5.6935,12.27063 8.1694,24.65361 3.9825,19.91785 6.5825,24.59077 22.5435,40.51719 l 18.0418,18.0027 -0.9657,21.38767 c -0.9267,20.5261 -0.463,21.86191 11.5098,33.16052 19.0579,17.9847 17.0632,22.98088 -8.1809,20.49094 -33.182,-3.27291 -33.8493,-3.85176 -23.5526,-20.43218 4.8368,-7.78868 8.7942,-14.83422 8.7942,-15.65676 0,-2.7772 -72.5706,1.05973 -75.8808,4.01194 -1.985,1.77036 -0.936,5.37094 2.6561,9.11664 3.2652,3.40488 5.9368,10.0239 5.9368,14.70893 0,11.29737 8.1781,17.32475 19.7787,14.57715 14.3935,-3.4091 9.0375,4.61074 -12.6818,18.98929 -19.7694,13.08769 -30.5641,16.12463 -27.1085,7.62661 2.8444,-6.99511 -2.6612,-9.05639 -13.6545,-5.11212 -14.9417,5.36092 -60.0748,50.17727 -70.847,70.34984 -15.4581,28.9474 -22.3021,36.1684 -44.1405,46.5716 -30.1705,14.3724 -31.9613,16.8223 -31.9613,43.7271 0,24.8992 -3.5588,29.7569 -9.0067,12.294 -5.0176,-16.0839 -21.3076,-20.0919 -69.8736,-17.1918 -30.5841,1.8263 -40.7294,3.7408 -49.4271,9.3271 -13.0934,8.4097 -21.6986,29.0246 -18.9772,45.4626 4.5236,27.324 8.6735,41.0974 13.1975,43.8022 10.5242,6.2924 25.1829,3.0127 38.9338,-8.7108 13.3278,-11.3628 28.6593,-15.2542 33.1406,-8.4116 1.1835,1.807 -3.105,12.3529 -9.53,23.4352 -13.7122,23.6518 -11.8286,26.5868 15.474,24.1111 21.3731,-1.938 24.0429,0.7505 24.194,24.364 0.089,13.9483 2.03,18.8552 11.7423,29.6879 10.7147,11.9508 12.2447,12.6185 19.337,8.4388 6.0773,-3.5817 8.6165,-3.6755 12.0397,-0.4451 6.8765,6.4893 12.1684,4.9752 31.9213,-9.1333 21.3341,-15.2379 27.6413,-16.78 47.1419,-11.5262 7.7912,2.0992 26.4572,4.8906 41.48,6.2034 23.3112,2.0369 29.4089,3.951 41.6077,13.0607 7.8615,5.8706 16.7319,13.9591 19.7121,17.9743 3.1942,4.3036 10.8284,8.1285 18.5973,9.3176 21.9726,3.3632 29.2399,7.7139 34.7702,20.8159 12.5118,29.6414 13.3489,30.2163 54.55,37.4628 29.1957,5.135 82.947,24.5963 98.1422,35.5336 16.7798,12.0778 15.4797,22.1082 -6.9213,53.3992 l -18.5647,25.9323 -1.7988,34.0369 c -1.2156,23.003 -3.4942,35.9605 -7.0289,39.97072 -2.8766,3.2636 -16.8861,11.1549 -31.1322,17.5362 -28.4565,12.7465 -34.3019,18.9898 -37.632,40.1931 -5.1155,32.572 -12.3156,44.9196 -44.0672,75.5724 -17.1427,16.5495 -37.1149,32.3849 -45.2635,35.888 -16.7974,7.2214 -25.2308,15.2778 -20.5041,19.5875 1.7679,1.612 16.7604,8.1771 33.3168,14.5892 104.6112,40.5148 209.6283,55.6624 315.7008,45.5364 z m 49.21891,-926.04904 c 0.082,-4.34034 3.0608,-13.05173 6.6203,-19.35864 7.8576,-13.92234 4.2546,-31.10875 -8.941,-42.64938 -4.6487,-4.06563 -8.4522,-9.06665 -8.4522,-11.11338 0,-6.62722 7.2061,-16.65006 11.9709,-16.65006 6.073,0 16.3609,10.84766 16.3609,17.25115 0,2.76525 6.4997,16.66982 14.4438,30.89906 7.944,14.22924 13.6075,27.92783 12.5854,30.44131 -2.7941,6.87125 -16.5526,14.21122 -31.4561,16.78127 -12.3064,2.12222 -13.2696,1.71138 -13.132,-5.60133 z m -40.60191,-19.17115 c -3.3191,-5.06794 19.0082,-31.02874 25.58681,-29.75079 8.1744,1.58796 7.0987,22.43883 -1.46251,28.3464 -7.1572,4.93875 -21.2715,5.76041 -24.1243,1.40439 z m -444.5955,753.21209 c 5.129,-83.41662 4.71,-85.27272 -20.6378,-91.40332 -25.2198,-6.0996 -44.2625,-22.8172 -59.0588,-51.8478 -16.5431,-32.4575 -30.8839,-84.2259 -29.5209,-106.5664 0.9851,-16.1463 1.9767,-17.9221 12.4348,-22.2672 11.1373,-4.6274 18.7381,-17.1487 18.7381,-30.8684 0,-5.1193 -2.7971,-6.1854 -16.2276,-6.1854 -15.5287,0 -17.5542,-1.2044 -47.031,-27.9644 -16.9418,-15.3805 -37.13,-31.0116 -44.8627,-34.7358 -7.7326,-3.7243 -17.0952,-9.9392 -20.8058,-13.8111 -5.3537,-5.5864 -10.9036,-7.0397 -26.8835,-7.0397 -11.0754,0 -27.5619,-2.1087 -36.6366,-4.6859 l -16.4994,-4.686 0.069,8.8635 c 0.1169,14.9917 9.6808,77.8272 15.3599,100.9163 21.9131,89.0901 68.4839,179.9688 129.0363,251.80302 43.1204,51.1543 129.8415,124.7808 135.5767,115.105 1.4486,-2.444 4.5757,-36.0259 6.9492,-74.6264 z M 1555.113,577.49238 c 4.9612,-2.1331 9.0203,-5.5954 9.0203,-7.6939 0,-4.7956 -60.7238,-41.9002 -68.5721,-41.9002 -17.1302,0 3.7169,35.5793 27.3025,46.5966 17.0443,7.9618 20.0533,8.2415 32.2493,2.9975 z m -33.6019,-112.8731 c 5.146,-9.074 4.5619,-27.5764 -1.1177,-35.40299 -2.6312,-3.62571 -5.8607,-10.77256 -7.1768,-15.88189 -1.3161,-5.10933 -6.3349,-12.52415 -11.1528,-16.47737 -10.6061,-8.70261 -11.1285,-16.29162 -1.6769,-24.36351 8.3621,-7.14147 8.5617,-8.51111 2.3994,-16.46404 -4.3701,-5.63995 -5.4156,-5.68716 -15.6239,-0.70553 -14.1006,6.88106 -25.7317,20.92069 -25.7317,31.06008 0,4.38683 4.1445,13.886 9.2098,21.10928 7.8705,11.22334 8.8909,15.46553 7.0166,29.17117 -2.4874,18.189 -1.0001,21.2744 13.8761,28.7865 14.3884,7.2657 25.5615,6.9557 29.9779,-0.8317 z"
       id="path2"
       transform="matrix(1.2024539,0,0,1.2492973,-181.13197,-127.00755)" /></g></svg>
