<?xml version="1.0" encoding="UTF-8" standalone="no"?>
<!-- Created with Inkscape (http://www.inkscape.org/) -->

<svg
   width="37.361824mm"
   height="40.038891mm"
   viewBox="0 0 37.361824 40.038891"
   version="1.1"
   id="svg891"
   inkscape:version="1.1 (c4e8f9e, 2021-05-24)"
   sodipodi:docname="mastodon.svg"
   xmlns:inkscape="http://www.inkscape.org/namespaces/inkscape"
   xmlns:sodipodi="http://sodipodi.sourceforge.net/DTD/sodipodi-0.dtd"
   xmlns="http://www.w3.org/2000/svg"
   xmlns:svg="http://www.w3.org/2000/svg">
  <sodipodi:namedview
     id="namedview893"
     pagecolor="#ffffff"
     bordercolor="#666666"
     borderopacity="1.0"
     inkscape:pageshadow="2"
     inkscape:pageopacity="0.0"
     inkscape:pagecheckerboard="0"
     inkscape:document-units="mm"
     showgrid="false"
     fit-margin-top="0"
     fit-margin-left="0"
     fit-margin-right="0"
     fit-margin-bottom="0"
     inkscape:zoom="0.63137002"
     inkscape:cx="55.435004"
     inkscape:cy="166.30501"
     inkscape:window-width="1312"
     inkscape:window-height="792"
     inkscape:window-x="111"
     inkscape:window-y="78"
     inkscape:window-maximized="0"
     inkscape:current-layer="layer1" />
  <defs
     id="defs888">
    <filter
       style="color-interpolation-filters:sRGB"
       inkscape:label="Invert"
       id="filter966"
       x="0"
       y="0"
       width="1"
       height="1">
      <feColorMatrix
         values="-1 0 0 0 1 0 -1 0 0 1 0 0 -1 0 1 0.21 0.72 0.07 0 0 "
         result="color2"
         id="feColorMatrix964" />
    </filter>
    <filter
       style="color-interpolation-filters:sRGB"
       inkscape:label="Invert"
       id="filter2096"
       x="0"
       y="0"
       width="1"
       height="1">
      <feColorMatrix
         values="-1 0 0 0 1 0 -1 0 0 1 0 0 -1 0 1 -0.21 -0.72 -0.07 1 0 "
         result="color2"
         id="feColorMatrix2094" />
    </filter>
  </defs>
  <g
     inkscape:label="Layer 1"
     inkscape:groupmode="layer"
     id="layer1"
     transform="translate(-116.74846,-199.17662)">
    <rect
       style="fill:#ffffff;fill-rule:evenodd;stroke-width:0.264583;fill-opacity:1"
       id="rect8190"
       width="26.73238"
       height="20.364628"
       x="122.19627"
       y="203.36725" />
    <path
       style="fill:#000000;fill-opacity:1;stroke-width:0.176389"
       d="m 130.8363,239.05796 c -5.15916,-0.51909 -8.74375,-2.15561 -10.58575,-4.83287 -2.7004,-3.92489 -3.64796,-9.32199 -3.48425,-19.84549 0.0725,-4.66158 0.0936,-4.90542 0.55641,-6.42637 0.69212,-2.27471 1.5522,-3.79379 2.94369,-5.19915 1.38095,-1.39471 2.37726,-1.92492 4.79993,-2.55438 5.24257,-1.36213 15.57339,-1.36442 20.74203,-0.005 2.10594,0.55405 2.88257,0.9051 4.04317,1.82757 2.00091,1.59037 3.46819,4.29355 4.0067,7.38158 0.30665,1.75846 0.3348,4.93289 0.0773,8.71482 -0.24251,3.56165 -0.57887,5.46859 -1.13069,6.41019 -1.05367,1.79794 -4.15737,3.8672 -6.97548,4.65058 -1.43237,0.39818 -4.58695,0.80999 -7.67292,1.00165 -2.16361,0.13438 -6.63867,-0.24881 -9.32164,-0.7982 l -1.56054,-0.31955 0.11312,0.81854 c 0.55022,3.98125 2.64708,5.3023 8.43307,5.31295 1.78382,0.003 4.79325,-0.3401 6.09049,-0.69494 l 0.5795,-0.15851 -0.0503,1.69165 -0.0503,1.69166 -1.48194,0.49755 c -2.71117,0.91026 -6.33742,1.21101 -10.07154,0.8353 z m -3.175,-21.24054 c 0,-5.40092 0.0209,-5.78068 0.35451,-6.43456 0.93681,-1.83631 3.89614,-1.7313 4.87568,0.173 0.27332,0.53134 0.32988,1.16831 0.38042,4.28421 l 0.0594,3.66007 h 2.09089 2.0909 l 0.0614,-3.57188 c 0.0695,-4.04012 0.22081,-4.67301 1.29244,-5.40429 0.45025,-0.30725 0.8674,-0.42367 1.54095,-0.43005 1.19054,-0.0113 1.96935,0.40335 2.42115,1.28894 0.33358,0.65388 0.35451,1.03364 0.35451,6.43456 v 5.73966 h 2.12673 2.12673 l -0.056,-6.39409 c -0.0544,-6.20318 -0.0682,-6.42437 -0.46349,-7.40775 -0.54078,-1.34534 -1.87817,-2.79268 -3.06893,-3.32124 -1.28317,-0.56958 -3.89229,-0.59525 -5.07473,-0.0499 -0.95908,0.44232 -1.94572,1.41661 -2.6988,2.66502 -0.30724,0.50932 -0.5996,0.92536 -0.6497,0.92453 -0.0501,-8.3e-4 -0.43696,-0.56214 -0.85971,-1.24736 -1.29168,-2.09367 -2.96095,-2.94378 -5.41578,-2.75813 -1.67183,0.12644 -2.86879,0.66208 -3.86896,1.73134 -1.66432,1.77929 -1.85288,2.81298 -1.85288,10.15736 v 5.70024 h 2.11667 2.11666 z"
       id="path7727" />
    <path
       style="fill:#8c8c8c;fill-opacity:0;stroke-width:0.176389"
       d="m 148.92865,223.73147 c 0.17162,-0.0447 0.40975,-0.0418 0.52917,0.007 0.11942,0.0483 -0.021,0.0849 -0.31204,0.0813 -0.29104,-0.004 -0.38875,-0.0431 -0.21713,-0.0879 z m 4.85836,0.002 c 0.12733,-0.051 0.27947,-0.0447 0.33808,0.0139 0.0586,0.0586 -0.0456,0.1003 -0.23151,0.0926 -0.20548,-0.008 -0.24728,-0.0503 -0.10657,-0.10657 z m -6.35,-0.17639 c 0.12734,-0.051 0.27947,-0.0447 0.33808,0.0139 0.0586,0.0586 -0.0456,0.1003 -0.23151,0.0926 -0.20548,-0.008 -0.24728,-0.0503 -0.10657,-0.10656 z m 7.9375,0 c 0.12733,-0.051 0.27947,-0.0447 0.33809,0.0139 0.0586,0.0586 -0.0456,0.1003 -0.23152,0.0926 -0.20548,-0.008 -0.24727,-0.0503 -0.10656,-0.10656 z m -4.1528,-3.88232 c 0.17162,-0.0447 0.40975,-0.0418 0.52916,0.007 0.11943,0.0483 -0.021,0.0849 -0.31203,0.0813 -0.29104,-0.004 -0.38875,-0.0431 -0.21713,-0.0879 z m 3.88055,0 c 0.17162,-0.0447 0.40975,-0.0418 0.52917,0.007 0.11942,0.0483 -0.021,0.0849 -0.31204,0.0813 -0.29104,-0.004 -0.38875,-0.0431 -0.21713,-0.0879 z m 1.50698,-0.17464 c 0.12733,-0.051 0.27946,-0.0447 0.33808,0.0139 0.0586,0.0586 -0.0456,0.10031 -0.23151,0.0926 -0.20549,-0.008 -0.24728,-0.0503 -0.10657,-0.10657 z m -10.38723,-1.5993 -0.42762,-0.48507 0.48507,0.42762 c 0.45337,0.39968 0.56596,0.54252 0.42762,0.54252 -0.0316,0 -0.24987,-0.21828 -0.48507,-0.48507 z m 5.79009,-3.15953 c 0.12127,-0.0489 0.31971,-0.0489 0.44097,0 0.12127,0.0489 0.0221,0.089 -0.22048,0.089 -0.24254,0 -0.34175,-0.04 -0.22049,-0.089 z m 4.32489,-0.005 c 0.17162,-0.0447 0.40974,-0.0418 0.52916,0.007 0.11942,0.0483 -0.021,0.0849 -0.31203,0.0813 -0.29105,-0.004 -0.38876,-0.0431 -0.21713,-0.0878 z m -6.44155,-0.17098 c 0.12126,-0.0489 0.3197,-0.0489 0.44097,0 0.12126,0.0489 0.0221,0.089 -0.22049,0.089 -0.24253,0 -0.34175,-0.04 -0.22048,-0.089 z m 8.47769,-0.004 c 0.12733,-0.051 0.27946,-0.0447 0.33808,0.0139 0.0586,0.0586 -0.0456,0.1003 -0.23151,0.0926 -0.20549,-0.008 -0.24728,-0.0503 -0.10657,-0.10656 z m -13.51449,-0.49687 c 0.004,-0.29104 0.0431,-0.38875 0.0879,-0.21713 0.0447,0.17162 0.0418,0.40975 -0.007,0.52917 -0.0483,0.11942 -0.0849,-0.021 -0.0813,-0.31204 z m 15.27838,0.32048 c 0.12732,-0.051 0.27946,-0.0447 0.33807,0.0139 0.0586,0.0586 -0.0456,0.1003 -0.23151,0.0926 -0.20548,-0.008 -0.24728,-0.0503 -0.10656,-0.10657 z m 9.20529,-4.02465 c 0.3291,-0.33954 0.63805,-0.61736 0.68656,-0.61736 0.0485,0 -0.18107,0.27782 -0.51017,0.61736 -0.32911,0.33955 -0.63806,0.61736 -0.68657,0.61736 -0.0485,0 0.18107,-0.27781 0.51018,-0.61736 z m -34.73469,-0.19108 c 0.008,-0.20549 0.0503,-0.24728 0.10657,-0.10657 0.051,0.12733 0.0447,0.27946 -0.0139,0.33808 -0.0586,0.0586 -0.1003,-0.0456 -0.0926,-0.23151 z m -0.16246,-1.661 c 0,-0.24253 0.04,-0.34175 0.089,-0.22049 0.0489,0.12127 0.0489,0.31971 0,0.44098 -0.0489,0.12126 -0.089,0.022 -0.089,-0.22049 z m 8.48041,-0.48448 2.07006,-0.0558 0.0492,-5.50657 0.0492,-5.50658 0.0415,5.60035 0.0415,5.60034 -2.16076,-0.0379 -2.16077,-0.0379 z m 17.81518,-5.46864 0.0415,-5.60035 0.0492,5.50658 0.0492,5.50657 2.07006,0.0558 2.07006,0.0558 -2.16076,0.0379 -2.16076,0.0379 z m -26.45179,3.83645 c 0,-0.43656 0.0344,-0.61515 0.0764,-0.39687 0.042,0.21828 0.042,0.57547 0,0.79375 -0.042,0.21828 -0.0764,0.0397 -0.0764,-0.39688 z m 36.83116,-0.27928 c 0.008,-0.20548 0.0503,-0.24728 0.10657,-0.10657 0.051,0.12733 0.0447,0.27947 -0.0139,0.33808 -0.0586,0.0586 -0.1003,-0.0456 -0.0926,-0.23151 z m 0.19031,-1.66099 c 0,-0.24254 0.04,-0.34176 0.089,-0.22049 0.0489,0.12127 0.0489,0.3197 0,0.44097 -0.0489,0.12127 -0.089,0.022 -0.089,-0.22048 z m -20.41678,-3.2632 c -2.1e-4,-1.64923 0.0263,-2.34766 0.0589,-1.55206 0.0326,0.7956 0.0328,2.14497 3.7e-4,2.99861 -0.0324,0.85363 -0.0591,0.20269 -0.0593,-1.44655 z m 4.05695,0 c -1.8e-4,-1.64923 0.0263,-2.34766 0.0589,-1.55206 0.0326,0.7956 0.0328,2.14497 3.5e-4,2.99861 -0.0324,0.85363 -0.0591,0.20269 -0.0593,-1.44655 z m 16.54276,0.52917 c 0.004,-0.29104 0.0431,-0.38875 0.0879,-0.21713 0.0447,0.17162 0.0418,0.40975 -0.007,0.52917 -0.0483,0.11942 -0.0849,-0.021 -0.0813,-0.31204 z m 0.19245,-4.23333 c 0.001,-0.48507 0.0356,-0.66258 0.0761,-0.39445 0.0405,0.26812 0.0395,0.66499 -0.002,0.88194 -0.0419,0.21695 -0.0751,-0.002 -0.0737,-0.48749 z m -30.71426,-0.61737 c 0,-0.24253 0.04,-0.34175 0.089,-0.22048 0.0489,0.12127 0.0489,0.3197 0,0.44097 -0.0489,0.12127 -0.089,0.0221 -0.089,-0.22049 z m 9.68746,0.0735 c 0.008,-0.20548 0.0503,-0.24728 0.10657,-0.10657 0.051,0.12733 0.0447,0.27947 -0.0139,0.33808 -0.0586,0.0586 -0.1003,-0.0456 -0.0926,-0.23151 z m 14.13157,-0.51479 c 0.004,-0.29104 0.0431,-0.38875 0.0879,-0.21713 0.0447,0.17162 0.0418,0.40975 -0.007,0.52917 -0.0483,0.11942 -0.0849,-0.021 -0.0813,-0.31204 z m -30.53573,-1.6022 c 0.008,-0.20548 0.0503,-0.24728 0.10656,-0.10657 0.051,0.12734 0.0447,0.27947 -0.0139,0.33808 -0.0586,0.0586 -0.1003,-0.0456 -0.0926,-0.23151 z m 37.21805,0 c 0.008,-0.20548 0.0503,-0.24728 0.10657,-0.10657 0.051,0.12734 0.0447,0.27947 -0.0139,0.33808 -0.0586,0.0586 -0.1003,-0.0456 -0.0926,-0.23151 z m -20.48838,-2.85162 -0.42763,-0.48507 0.48507,0.42763 c 0.45337,0.39967 0.56596,0.54251 0.42762,0.54251 -0.0316,0 -0.24987,-0.21828 -0.48506,-0.48507 z m -4.79325,-1.39564 c 0.12127,-0.0489 0.3197,-0.0489 0.44097,0 0.12127,0.0489 0.0221,0.089 -0.22049,0.089 -0.24253,0 -0.34175,-0.04 -0.22048,-0.089 z m 1.5875,0 c 0.12127,-0.0489 0.3197,-0.0489 0.44097,0 0.12127,0.0489 0.0221,0.089 -0.22049,0.089 -0.24253,0 -0.34175,-0.04 -0.22048,-0.089 z m 9.87778,0 c 0.12126,-0.0489 0.3197,-0.0489 0.44097,0 0.12127,0.0489 0.0221,0.089 -0.22049,0.089 -0.24253,0 -0.34175,-0.04 -0.22048,-0.089 z m 1.5875,0 c 0.12126,-0.0489 0.3197,-0.0489 0.44097,0 0.12127,0.0489 0.022,0.089 -0.22049,0.089 -0.24253,0 -0.34175,-0.04 -0.22048,-0.089 z m -22.53369,-2.24283 c 0,-0.0366 0.13891,-0.17553 0.30869,-0.30868 0.27976,-0.2194 0.286,-0.21317 0.0666,0.0666 -0.23043,0.29382 -0.37528,0.38726 -0.37528,0.24208 z m 30.31639,-2.00597 c -0.2194,-0.27976 -0.21316,-0.286 0.0666,-0.0666 0.29382,0.23043 0.38726,0.37528 0.24208,0.37528 -0.0366,0 -0.17553,-0.13891 -0.30868,-0.30868 z m -22.23557,-2.10487 c 0.12733,-0.051 0.27947,-0.0447 0.33808,0.0139 0.0586,0.0586 -0.0456,0.10031 -0.23151,0.0926 -0.20548,-0.008 -0.24728,-0.0503 -0.10657,-0.10657 z m 1.2237,-0.17271 c 0.12127,-0.0489 0.3197,-0.0489 0.44097,0 0.12127,0.0489 0.0221,0.089 -0.22048,0.089 -0.24254,0 -0.34176,-0.04 -0.22049,-0.089 z m 13.59297,-0.004 c 0.12733,-0.051 0.27946,-0.0447 0.33808,0.0139 0.0586,0.0586 -0.0456,0.1003 -0.23151,0.0926 -0.20549,-0.008 -0.24728,-0.0503 -0.10657,-0.10657 z m -11.82908,-0.17271 c 0.12127,-0.0489 0.3197,-0.0489 0.44097,0 0.12127,0.0489 0.0221,0.089 -0.22049,0.089 -0.24253,0 -0.34175,-0.04 -0.22048,-0.089 z m 10.06519,-0.004 c 0.12733,-0.051 0.27946,-0.0447 0.33808,0.0139 0.0586,0.0586 -0.0456,0.1003 -0.23151,0.0926 -0.20549,-0.008 -0.24728,-0.0503 -0.10657,-0.10657 z m -7.33116,-0.18223 c 0.26678,-0.0404 0.70335,-0.0404 0.97013,0 0.26679,0.0404 0.0485,0.0735 -0.48506,0.0735 -0.53358,0 -0.75186,-0.0331 -0.48507,-0.0735 z m 3.88055,0 c 0.26679,-0.0404 0.70335,-0.0404 0.97014,0 0.26679,0.0404 0.0485,0.0735 -0.48507,0.0735 -0.53358,0 -0.75186,-0.0331 -0.48507,-0.0735 z"
       id="path1777" />
  </g>
</svg>
