<?xml version="1.0" ?><svg enable-background="new 0 0 32 32" version="1.1" viewBox="0 0 32 32" xml:space="preserve" xmlns="http://www.w3.org/2000/svg" xmlns:xlink="http://www.w3.org/1999/xlink"><g id="OUTLINE_copy_2"><g><path d="M16,0C7.164,0,0,7.164,0,16s7.164,16,16,16s16-7.164,16-16S24.836,0,16,0z M11.904,21.951c-1.021,0-1.85-0.823-1.85-1.843    c0-1.015,0.829-1.847,1.85-1.847c1.025,0,1.852,0.833,1.852,1.847C13.756,21.128,12.928,21.951,11.904,21.951z M16.551,21.948    c0-1.741-0.677-3.379-1.904-4.604c-1.228-1.229-2.859-1.907-4.594-1.907v-2.664c5.057,0,9.173,4.116,9.173,9.175H16.551z     M21.274,21.947c0-6.193-5.035-11.234-11.22-11.233V8.049c7.66,0,13.893,6.237,13.893,13.898H21.274z"/></g></g></svg>